<svg width="49" height="48" viewBox="0 0 49 48" fill="none" xmlns="http://www.w3.org/2000/svg">
<path d="M24.0034 48C10.8128 48.0149 -0.0149399 37.3368 1.54739e-05 23.9966C0.0149709 17.4012 2.37793 11.6883 7.05897 7.02217C11.9045 2.19157 17.8269 -0.15643 24.6615 0.00807964C31.0026 0.157634 36.4912 2.53554 40.9778 7.03712C45.7337 11.8079 48.0966 17.6255 48.0069 24.3555C47.8573 37.3517 37.239 48 24.0034 48ZM19.6365 45.1435C24.4372 46.0558 29.0584 45.5772 33.4254 43.4087C39.0336 40.627 42.8323 36.2301 44.6569 30.2479C48.1863 18.7023 41.5162 6.30431 29.4173 3.10385C23.5249 1.68309 17.9316 2.4159 12.7719 5.58645C7.32817 8.93646 3.94824 13.797 2.79668 20.0932C1.73484 25.7912 2.84154 31.1303 6.05696 35.9609C8.56946 39.7596 11.9943 42.4665 16.2565 44.1564C16.3463 43.4386 16.451 42.7506 16.5108 42.0477C16.5706 41.2102 16.6155 40.3578 16.6155 39.5203C16.6304 31.893 16.6155 24.2508 16.6304 16.6235C16.6304 15.7711 16.6903 14.9186 16.7351 14.0811C16.765 13.3932 16.8697 12.7202 17.0193 12.0472C17.1688 11.3891 17.3782 10.761 17.7222 10.1778C18.2307 9.3253 18.9186 8.63735 19.7112 8.03913C20.9825 7.09694 22.4481 6.67819 24.0184 6.61837C24.7961 6.58846 25.5738 6.60341 26.3514 6.73801C26.9198 6.82775 27.4731 6.96234 28.0115 7.15676C28.7742 7.42596 29.4771 7.79985 30.1202 8.29338C30.6287 8.68222 31.0774 9.11592 31.4512 9.63936C32.0943 10.5516 32.4233 11.5985 32.5131 12.7052C32.6178 13.8269 32.4981 14.9186 32.0943 15.9805C31.855 16.6086 31.526 17.2068 31.1073 17.7302C30.5689 18.4331 29.9258 19.0164 29.2079 19.5249C29.1032 19.5997 29.0135 19.6595 28.9088 19.7492C28.9686 19.7791 28.9986 19.7941 29.0285 19.809C29.9856 20.2727 30.8829 20.841 31.6905 21.5588C32.4084 22.2019 32.9916 22.9497 33.4403 23.8021C34.0086 24.8939 34.2778 26.0604 34.3376 27.2718C34.3825 28.2289 34.3077 29.1711 34.1133 30.1133C33.9488 30.876 33.6946 31.6089 33.3655 32.3267C33.0515 32.9698 32.6776 33.568 32.2588 34.1363C31.7503 34.8243 31.182 35.4225 30.5091 35.9459C29.7613 36.5142 28.9387 36.9031 28.0414 37.1573C27.3086 37.3667 26.5608 37.4863 25.7981 37.5162C24.9755 37.5611 24.168 37.5462 23.3753 37.3368C22.2985 37.0676 21.3863 36.5292 20.5936 35.7365C20.459 35.6019 20.3394 35.4674 20.2048 35.3328C20.1898 35.3477 20.1898 35.3627 20.1898 35.3627C20.1898 35.4075 20.1898 35.4524 20.1898 35.4973C20.1599 37.7406 20.2795 39.9839 20.0702 42.2122C20.0253 42.7955 19.9505 43.3638 19.8758 43.9471C19.786 44.3359 19.7112 44.7247 19.6365 45.1435ZM27.3983 19.166C27.5778 18.807 27.7722 18.4331 27.9517 18.0593C28.3405 17.2068 28.6097 16.3095 28.7593 15.3972C28.9088 14.455 28.9387 13.4979 28.849 12.5557C28.7593 11.6284 28.5349 10.7311 28.0265 9.93847C27.6376 9.3253 27.1291 8.83177 26.486 8.4878C25.7383 8.09895 24.9456 8.00922 24.1081 8.09896C23.4052 8.17373 22.7621 8.39806 22.1938 8.80186C21.3414 9.41503 20.7581 10.2077 20.474 11.2097C20.2945 11.8827 20.2197 12.5706 20.1898 13.2586C20.1599 13.8717 20.145 14.47 20.145 15.0831C20.145 21.0952 20.145 27.1073 20.145 33.1194C20.145 33.1642 20.145 33.2091 20.145 33.2539C20.1599 33.3138 20.1599 33.3586 20.1898 33.4035C20.5338 33.9569 20.9525 34.4653 21.4461 34.899C22.1191 35.4673 22.8818 35.8412 23.7492 35.9908C24.5718 36.1403 25.3943 36.1104 26.2168 35.931C26.8898 35.7814 27.503 35.4973 28.0564 35.0636C28.7294 34.5252 29.178 33.8073 29.5369 33.0296C30.0155 31.9827 30.2548 30.891 30.3445 29.7544C30.4343 28.4682 30.3296 27.1821 30.0305 25.9258C29.7314 24.6845 29.3126 23.4881 28.6845 22.3664C28.3106 21.7084 27.8769 21.1102 27.3235 20.5718C27.2488 20.5119 27.1889 20.482 27.0992 20.5119C26.1869 20.7213 25.2597 20.8709 24.3175 20.7811C23.9287 20.7512 23.5548 20.6765 23.2108 20.482C22.8967 20.3026 22.7472 20.0184 22.7472 19.6744C22.7472 19.3155 22.9117 19.0463 23.2407 18.8818C23.5997 18.7023 24.0034 18.6575 24.4072 18.6425C25.0055 18.6276 25.5887 18.7173 26.172 18.8369C26.5608 18.9566 26.9646 19.0613 27.3983 19.166Z" fill="#375587"/>
</svg>
