<svg width="44" height="49" viewBox="0 0 44 49" fill="none" xmlns="http://www.w3.org/2000/svg">
<path d="M29.7612 44.1323H1.23235C0.554557 44.1323 0 43.5778 0 42.9V3.77288C0 3.09508 0.554557 2.54053 1.23235 2.54053H29.7612C30.439 2.54053 30.9936 3.09508 30.9936 3.77288V42.9C30.9936 43.5778 30.439 44.1323 29.7612 44.1323Z" fill="#E79F3E"/>
<path d="M17.0679 44.1323H28.4055V7.16179C28.4055 6.484 27.8509 5.92944 27.1731 5.92944H17.0679V44.1323Z" fill="#5C747F"/>
<path d="M41.0989 34.6433H16.8216C15.466 34.6433 14.3569 33.5341 14.3569 32.1786V18.7459C14.3569 17.3904 15.466 16.2812 16.8216 16.2812H41.0989C42.4545 16.2812 43.5636 17.3904 43.5636 18.7459V32.1786C43.5636 33.5341 42.4545 34.6433 41.0989 34.6433Z" fill="#EAC346"/>
<path d="M4.25154 44.6252L17.0064 49C18.3003 49 18.1771 48.2606 18.1771 47.2131V1.92426C18.1771 0.876762 17.5609 0.815144 16.3286 1.24647L3.14243 5.68292C2.21816 5.86778 2.3414 6.2991 2.3414 7.28498V42.7766C2.40302 44.4403 2.46463 44.009 4.25154 44.6252Z" fill="#C45D33"/>
<path d="M12.2621 27.4338C13.6233 27.4338 14.7268 26.3303 14.7268 24.9691C14.7268 23.6079 13.6233 22.5044 12.2621 22.5044C10.9008 22.5044 9.79736 23.6079 9.79736 24.9691C9.79736 26.3303 10.9008 27.4338 12.2621 27.4338Z" fill="#F7D8B2"/>
<path d="M24.5855 26.756C24.5855 27.8035 23.7228 28.6046 22.5521 28.6046H20.4571C20.0874 28.6046 19.7793 28.3581 19.7793 27.9268V22.9974C19.7793 22.6277 20.0258 22.3196 20.4571 22.3196H21.9975C23.1683 22.3196 23.9693 22.9974 23.9693 24.0449C23.9693 24.4762 23.7844 24.9075 23.538 25.154C24.2158 25.4621 24.5855 26.0166 24.5855 26.756ZM21.0116 23.4287V24.8459H21.8743C22.3672 24.8459 22.6753 24.5994 22.6753 24.1065C22.6753 23.6752 22.3672 23.4287 21.8743 23.4287H21.0116V23.4287ZM23.3531 26.6944C23.3531 26.2015 23.045 25.8934 22.4905 25.8934H21.0733V27.4954H22.4905C23.045 27.4954 23.3531 27.1874 23.3531 26.6944Z" fill="black"/>
<path d="M25.6328 27.9269V22.9975C25.6328 22.6278 25.8793 22.3813 26.249 22.3813H29.2682C29.6379 22.3813 29.8228 22.6278 29.8228 22.9359C29.8228 23.244 29.5763 23.4905 29.2682 23.4905H26.8652V24.7844H28.5288C28.8369 24.7844 29.0834 25.0309 29.0834 25.339C29.0834 25.6471 28.8369 25.8935 28.5288 25.8935H26.8652V27.4956H29.3915C29.7612 27.4956 29.946 27.7421 29.946 28.0502C29.946 28.3582 29.6996 28.6047 29.3915 28.6047H26.249C25.8793 28.6047 25.6328 28.2966 25.6328 27.9269Z" fill="black"/>
<path d="M32.4108 28.0502V23.4905H30.932C30.6239 23.4905 30.3774 23.244 30.3774 22.9359C30.3774 22.6278 30.6239 22.3813 30.932 22.3813H35.1836C35.5533 22.3813 35.7382 22.6278 35.7382 22.9359C35.7382 23.244 35.4917 23.4905 35.1836 23.4905H33.7048V28.0502C33.7048 28.4199 33.4583 28.7279 33.0886 28.7279C32.7189 28.6663 32.4108 28.4199 32.4108 28.0502Z" fill="black"/>
<path d="M41.0374 28.1117C41.0374 28.4814 40.7909 28.7279 40.4212 28.7279C40.1747 28.7279 39.9283 28.543 39.805 28.2966L39.5585 27.6804H36.909L36.6625 28.2966C36.5393 28.6047 36.3544 28.7279 36.0464 28.7279C35.6766 28.7279 35.4302 28.4814 35.4302 28.1117C35.4302 27.9885 35.4302 27.9269 35.4918 27.742L37.6484 22.6894C37.7716 22.3813 37.9565 22.2581 38.2646 22.2581C38.5727 22.2581 38.7575 22.3813 38.8808 22.6894L40.9757 27.742C41.0374 27.8652 41.0374 27.9885 41.0374 28.1117ZM37.3403 26.5713H39.1272L38.2646 24.1682L37.3403 26.5713Z" fill="black"/>
</svg>
