<svg width="48" height="42" viewBox="0 0 48 42" fill="none" xmlns="http://www.w3.org/2000/svg">
<path d="M39 24C39 28.08 37.38 31.8 34.74 34.5H30C29.61 34.5 29.22 34.65 28.95 34.95L24.93 38.94C24.63 39 24.3 39 24 39C23.7 39 23.37 39 23.07 38.94L19.05 34.95C18.78 34.65 18.39 34.5 18 34.5H13.26C10.62 31.8 9 28.08 9 24C9 15.72 15.72 9 24 9C32.28 9 39 15.72 39 24Z" fill="#FFC107"/>
<path d="M46.5 33H30C29.601 33 29.22 33.159 28.938 33.438L24 38.379L19.062 33.441C18.78 33.159 18.399 33 18 33H1.5C0.672 33 0 33.672 0 34.5C0 35.328 0.672 36 1.5 36H17.379L22.941 41.562C23.232 41.853 23.616 42 24 42C24.384 42 24.768 41.853 25.062 41.562L30.621 36H46.5C47.328 36 48 35.328 48 34.5C48 33.672 47.328 33 46.5 33Z" fill="#375587"/>
<path d="M24 6C24.828 6 25.5 5.328 25.5 4.5V1.5C25.5 0.672 24.828 0 24 0C23.172 0 22.5 0.672 22.5 1.5V4.5C22.5 5.328 23.172 6 24 6Z" fill="#FFD54F"/>
<path d="M1.5 25.5H4.5C5.328 25.5 6 24.828 6 24C6 23.172 5.328 22.5 4.5 22.5H1.5C0.672 22.5 0 23.172 0 24C0 24.828 0.672 25.5 1.5 25.5Z" fill="#FFD54F"/>
<path d="M43.5 25.5H46.5C47.328 25.5 48 24.828 48 24C48 23.172 47.328 22.5 46.5 22.5H43.5C42.672 22.5 42 23.172 42 24C42 24.828 42.672 25.5 43.5 25.5Z" fill="#FFD54F"/>
<path d="M9.15008 11.271C9.44408 11.565 9.82808 11.709 10.2121 11.709C10.5961 11.709 10.9801 11.565 11.2711 11.271C11.8561 10.686 11.8561 9.73501 11.2711 9.15001L9.15008 7.03201C8.56508 6.44701 7.61408 6.44701 7.02908 7.03201C6.44408 7.61701 6.44408 8.56801 7.02908 9.15301L9.15008 11.271Z" fill="#FFD54F"/>
<path d="M37.7908 11.712C38.1748 11.712 38.5588 11.565 38.8528 11.274L40.9708 9.15301C41.5558 8.56801 41.5558 7.61701 40.9708 7.03201C40.3858 6.44701 39.4348 6.44701 38.8498 7.03201L36.7288 9.15001C36.1438 9.73501 36.1438 10.686 36.7288 11.271C37.0228 11.565 37.4068 11.712 37.7908 11.712Z" fill="#FFD54F"/>
</svg>
