<svg width="48" height="42" viewBox="0 0 48 42" fill="none" xmlns="http://www.w3.org/2000/svg">
<path d="M33.1638 16.5819C33.1638 21.5625 29.1262 25.6001 24.1456 25.6001C19.165 25.6001 15.1274 21.5625 15.1274 16.5819C15.1274 11.6013 19.165 7.56372 24.1456 7.56372C29.1262 7.56372 33.1638 11.6013 33.1638 16.5819Z" fill="#FADD4B"/>
<mask id="mask0" mask-type="alpha" maskUnits="userSpaceOnUse" x="15" y="7" width="19" height="19">
<path d="M33.1638 16.5819C33.1638 21.5625 29.1262 25.6001 24.1456 25.6001C19.165 25.6001 15.1274 21.5625 15.1274 16.5819C15.1274 11.6013 19.165 7.56372 24.1456 7.56372C29.1262 7.56372 33.1638 11.6013 33.1638 16.5819Z" fill="#FADD4B"/>
</mask>
<g mask="url(#mask0)">
<rect x="24.1455" y="5.81812" width="20.0727" height="22.6909" fill="#F6BF42"/>
</g>
<path d="M0 16.5817C0 15.7784 0.651222 15.1272 1.45455 15.1272H46.5455C47.3488 15.1272 48 15.7784 48 16.5817V40.4363C48 41.2396 47.3488 41.8908 46.5455 41.8908H1.45454C0.651221 41.8908 0 41.2396 0 40.4363V16.5817Z" fill="#4199D2"/>
<path d="M22.6909 1.45455C22.6909 0.651222 23.3421 0 24.1455 0V0C24.9488 0 25.6 0.651222 25.6 1.45455V2.90909C25.6 3.71241 24.9488 4.36364 24.1455 4.36364V4.36364C23.3421 4.36364 22.6909 3.71241 22.6909 2.90909V1.45455Z" fill="#FADD4B"/>
<path d="M15.2727 4.16885C14.871 3.47315 15.1094 2.58357 15.8051 2.18191V2.18191C16.5008 1.78025 17.3904 2.01861 17.792 2.71431L18.5193 3.97398C18.921 4.66968 18.6826 5.55927 17.9869 5.96093V5.96093C17.2912 6.36259 16.4016 6.12422 16 5.42853L15.2727 4.16885Z" fill="#FADD4B"/>
<path d="M10.2777 10.2282C9.58204 9.82659 9.34368 8.937 9.74534 8.2413V8.2413C10.147 7.5456 11.0366 7.30724 11.7323 7.7089L12.992 8.43618C13.6877 8.83784 13.926 9.72742 13.5244 10.4231V10.4231C13.1227 11.1188 12.2331 11.3572 11.5374 10.9555L10.2777 10.2282Z" fill="#FADD4B"/>
<path d="M30.2547 2.71426C30.6563 2.01856 31.5459 1.7802 32.2416 2.18186V2.18186C32.9373 2.58352 33.1757 3.47311 32.774 4.16881L32.0467 5.42848C31.6451 6.12418 30.7555 6.36254 30.0598 5.96088V5.96088C29.3641 5.55922 29.1257 4.66963 29.5274 3.97394L30.2547 2.71426Z" fill="#F6BF42"/>
<path d="M36.2647 7.70896C36.9604 7.3073 37.85 7.54566 38.2517 8.24136V8.24136C38.6533 8.93706 38.415 9.82665 37.7193 10.2283L36.4596 10.9556C35.7639 11.3572 34.8743 11.1189 34.4727 10.4232V10.4232C34.071 9.72748 34.3094 8.8379 35.0051 8.43623L36.2647 7.70896Z" fill="#F6BF42"/>
<mask id="mask1" mask-type="alpha" maskUnits="userSpaceOnUse" x="0" y="15" width="48" height="27">
<path d="M0 16.5817C0 15.7784 0.651222 15.1272 1.45455 15.1272H46.5455C47.3488 15.1272 48 15.7784 48 16.5817V40.4363C48 41.2396 47.3488 41.8908 46.5455 41.8908H1.45454C0.651221 41.8908 0 41.2396 0 40.4363V16.5817Z" fill="#4199D2"/>
</mask>
<g mask="url(#mask1)">
<rect x="24.1455" y="10.4727" width="24.7273" height="35.7818" fill="#307AA9"/>
</g>
<path d="M13.9634 19.7817C13.9634 18.9784 14.6146 18.3271 15.4179 18.3271H32.8725C33.6758 18.3271 34.327 18.9784 34.327 19.7817V19.7817C34.327 20.585 33.6758 21.2362 32.8725 21.2362H15.4179C14.6146 21.2362 13.9634 20.585 13.9634 19.7817V19.7817Z" fill="#5FC5FA"/>
<path d="M15.4185 25.6001C15.4185 24.7967 16.0697 24.1455 16.873 24.1455H31.4185C32.2218 24.1455 32.873 24.7967 32.873 25.6001V25.6001C32.873 26.4034 32.2218 27.0546 31.4185 27.0546H16.873C16.0697 27.0546 15.4185 26.4034 15.4185 25.6001V25.6001Z" fill="#5FC5FA"/>
<path d="M16.8726 31.4182C16.8726 30.6148 17.5238 29.9636 18.3271 29.9636H29.9635C30.7668 29.9636 31.418 30.6148 31.418 31.4182V31.4182C31.418 32.2215 30.7668 32.8727 29.9635 32.8727H18.3271C17.5238 32.8727 16.8726 32.2215 16.8726 31.4182V31.4182Z" fill="#5FC5FA"/>
<path fill-rule="evenodd" clip-rule="evenodd" d="M19.5994 36.1039C19.9036 35.3604 20.7529 35.0042 21.4964 35.3084L24.1457 36.3922L26.7949 35.3084C27.5384 35.0042 28.3877 35.3604 28.6919 36.1039C28.9961 36.8474 28.6399 37.6967 27.8964 38.0009L24.6964 39.31C24.3434 39.4544 23.9479 39.4544 23.5949 39.31L20.3949 38.0009C19.6514 37.6967 19.2952 36.8474 19.5994 36.1039Z" fill="#5FC5FA"/>
<mask id="mask2" mask-type="alpha" maskUnits="userSpaceOnUse" x="22" y="0" width="4" height="5">
<path d="M22.6909 1.45455C22.6909 0.651222 23.3421 0 24.1455 0V0C24.9488 0 25.6 0.651222 25.6 1.45455V2.90909C25.6 3.71241 24.9488 4.36364 24.1455 4.36364V4.36364C23.3421 4.36364 22.6909 3.71241 22.6909 2.90909V1.45455Z" fill="#FADD4B"/>
</mask>
<g mask="url(#mask2)">
<rect x="24.1455" y="-0.291016" width="2.03636" height="5.81818" fill="#F6BF42"/>
</g>
</svg>
